<svg width="1300" height="1300" viewBox="0 0 1300 1300" fill="none" xmlns="http://www.w3.org/2000/svg">
<mask id="mask0_410_1767" style="mask-type:alpha" maskUnits="userSpaceOnUse" x="0" y="0" width="1296" height="1296">
<circle cx="647.869" cy="647.869" r="647.869" fill="#D9D9D9"/>
</mask>
<g mask="url(#mask0_410_1767)">
<path d="M1064.53 1113.88C1057.35 1057.98 1025.63 963.943 1006.37 938.639C985.22 911.07 976.534 902.384 905.91 878.591C902.133 859.707 888.16 812.121 871.542 792.105C846.239 753.961 777.126 745.275 756.354 749.807C756.354 749.807 644.565 710.529 515.781 710.529C474.993 719.593 427.785 738.099 402.104 776.998C384.731 802.68 404.37 810.988 395.683 834.404C393.417 840.446 340.544 870.66 319.017 888.788C309.198 896.719 298.246 916.735 290.692 942.794C275.586 996.045 291.825 1069.69 272.942 1133.89C236.686 1257.77 163.041 1294.78 163.041 1294.78H1138.93C1138.17 1294.4 1080.01 1231.71 1064.53 1113.88Z" fill="white"/>
<path d="M1058.87 1114.63C1051.31 1065.16 1036.21 1016.06 1016.95 969.988C1007.5 947.706 993.152 926.179 973.136 912.961C962.939 906.541 951.609 901.631 939.902 896.721C928.194 892.189 916.109 888.035 904.401 883.881C902.513 883.125 901.002 881.615 900.624 879.726C899.114 872.173 897.225 864.997 894.959 857.444C885.14 826.853 874.565 792.863 845.863 775.113C823.958 761.895 797.899 755.474 772.595 754.341C767.686 754.341 762.399 754.341 757.867 755.097H756.356C755.978 755.097 755.223 755.097 754.845 754.719C736.717 746.033 716.701 740.745 697.062 735.458C638.146 721.862 576.587 716.197 516.16 715.819C479.149 724.506 427.409 744.9 404.749 782.666C400.972 788.709 399.084 794.751 399.839 801.549C400.595 809.103 403.238 817.411 401.35 825.342C400.595 828.741 399.839 832.518 398.329 835.539C395.307 839.694 390.398 842.337 386.621 844.981C366.982 857.822 346.966 869.152 328.083 882.37C321.662 886.902 315.62 891.056 311.088 897.477C297.869 916.36 289.938 939.02 286.539 961.68C280.497 1007.76 286.539 1054.59 280.497 1100.66C273.699 1146.74 255.948 1191.3 231.023 1230.58C213.65 1257.01 192.501 1281.56 165.686 1298.56L163.043 1287.98H1138.93L1134.78 1297.42C1123.45 1284.58 1114.38 1270.61 1106.07 1255.88C1080.39 1212.83 1065.29 1164.11 1058.87 1114.63ZM1070.2 1113.12C1074.35 1145.23 1082.28 1176.95 1094.37 1207.16C1106.45 1237 1121.56 1266.08 1142.71 1290.63C1145.73 1294.03 1143.09 1300.45 1138.55 1300.07H162.665C159.644 1300.07 157 1297.42 157 1294.4C157 1292.14 158.133 1290.25 160.021 1289.49C166.064 1286.09 172.107 1281.19 177.772 1276.28C227.246 1231.71 258.214 1165.62 268.411 1099.91C277.098 1038.35 260.858 971.877 288.428 913.339C294.848 899.743 302.779 885.391 315.62 876.705C339.035 859.332 364.716 846.492 387.754 829.497C388.132 829.497 388.132 829.119 388.132 829.119C387.754 829.497 387.376 830.252 387.376 830.63C389.642 825.342 390.398 820.81 389.642 814.768C388.509 807.214 386.621 797.017 389.265 789.087C390.398 784.555 392.664 780.4 394.93 777.001C422.121 736.213 470.085 718.085 515.783 707.888C528.623 708.266 541.842 706 554.682 706C572.433 706 590.561 708.644 608.311 710.91C659.296 718.841 708.392 732.437 758.622 743.389L755.223 743.011C766.93 740.745 777.883 741.878 789.213 743.389C861.725 754.341 886.273 786.065 905.912 853.667C908.178 861.221 910.066 868.774 911.954 876.705L908.178 872.173C944.433 885.014 985.221 896.721 1008.26 930.334C1016.57 940.531 1022.61 952.616 1027.9 964.701C1047.16 1013.04 1062.27 1061.76 1070.2 1113.12Z" fill="black"/>
<path d="M469.331 865.373C497.278 925.044 540.71 975.652 592.45 1015.68C594.338 1017.19 592.45 1020.22 590.184 1019.08C544.109 997.179 505.209 959.79 482.171 914.47C474.618 899.363 468.198 883.123 465.932 866.128C465.176 864.24 468.198 863.485 469.331 865.373Z" fill="black"/>
<path d="M911.577 877.84C912.71 940.91 887.029 1005.49 837.932 1046.28C836.799 1047.41 835.289 1047.03 834.156 1045.9C833.023 1044.77 833.4 1043.26 834.533 1042.12C845.486 1031.55 856.438 1020.6 864.747 1007.76C882.119 982.831 892.694 953.373 897.604 923.537C899.87 908.808 901.38 892.946 900.247 878.217C899.87 871.042 911.2 870.286 911.577 877.84Z" fill="black"/>
<path d="M689.131 1027.77C680.445 1058.36 673.269 1091.6 677.423 1123.32C678.556 1130.5 667.604 1132.39 666.093 1124.83C664.205 1107.46 666.471 1090.47 669.492 1073.85C672.891 1057.23 677.046 1041.37 682.711 1025.51C684.221 1021.73 690.642 1023.62 689.131 1027.77Z" fill="black"/>
<path d="M809.229 1022.1C821.692 1048.92 830.378 1076.87 837.176 1105.19C837.931 1108.21 836.043 1111.23 833.022 1111.99C830 1112.74 826.979 1110.86 826.224 1107.83C822.447 1086.68 817.537 1065.54 810.739 1044.76C808.473 1037.97 806.207 1031.17 803.564 1024.37C802.053 1020.97 807.34 1018.33 809.229 1022.1Z" fill="black"/>
<path d="M403.616 832.894C417.589 909.183 471.218 973.764 535.799 1014.93C557.703 1028.9 581.119 1040.99 605.289 1050.81C606.8 1051.56 607.555 1053.07 606.8 1054.58C606.422 1056.09 604.534 1056.85 603.401 1056.09C578.475 1047.03 554.304 1035.7 531.644 1022.1C485.569 994.913 445.159 957.146 417.967 911.071C403.993 887.278 393.041 862.352 387.754 835.16C386.998 830.628 390.02 826.474 394.552 825.719C398.706 824.586 403.238 827.985 403.616 832.894Z" fill="black"/>
<path d="M666.47 1131.63C655.895 1130.49 648.342 1120.67 650.608 1110.1L654.762 1090.08C656.273 1082.15 663.826 1076.49 671.757 1077.62C679.688 1078.38 686.108 1085.17 686.108 1093.48V1113.88C686.486 1124.45 677.422 1132.76 666.47 1131.63Z" fill="black"/>
<path d="M840.575 1117.66C830.378 1121.43 819.426 1115.39 816.782 1104.81L811.872 1084.8C809.984 1076.87 814.138 1068.94 822.069 1065.92C829.623 1063.27 838.309 1066.67 841.708 1073.85L850.772 1092.35C855.304 1102.55 850.772 1114.26 840.575 1117.66Z" fill="black"/>
<path d="M348.476 1294.4C348.476 1294.4 345.077 1210.18 333.747 1187.52" stroke="black" stroke-width="5.1257" stroke-miterlimit="10" stroke-linecap="round" stroke-linejoin="round"/>
<path d="M1015.06 1106.33C1015.06 1106.33 1036.21 1224.91 1027.9 1294.4" stroke="black" stroke-width="5.1257" stroke-miterlimit="10" stroke-linecap="round" stroke-linejoin="round"/>
<path d="M954.252 1220.38C954.252 1220.38 898.357 1228.69 849.261 1226.42" stroke="black" stroke-width="5.1257" stroke-miterlimit="10" stroke-linecap="round" stroke-linejoin="round"/>
<path d="M521.824 819.299C516.537 804.192 514.271 788.708 515.404 772.846C515.404 771.335 516.537 770.58 518.047 770.58C519.18 770.58 520.313 771.713 520.313 772.846C521.446 787.197 525.601 801.926 532.399 814.389C535.798 821.943 524.468 826.852 521.824 819.299Z" fill="black"/>
<path d="M777.126 839.315C766.551 815.522 740.492 803.437 717.455 795.128C703.103 790.596 687.242 787.197 672.135 784.931C635.501 779.266 583.761 770.58 547.127 766.803C546.75 766.803 546.75 766.048 547.127 766.048C557.702 764.915 568.277 764.915 578.851 764.915C610.575 765.67 642.299 769.069 673.646 773.979C704.992 778.889 738.604 788.33 762.397 810.99C769.95 818.921 776.748 827.985 778.637 838.938C779.014 840.071 777.504 840.448 777.126 839.315Z" fill="black"/>
<path d="M807.878 973.573C800.091 1011.77 749.662 1034.76 664.748 1000.27C576.497 964.674 538.304 879.76 528.663 854.546C580.947 756.654 544.608 688.797 544.608 688.797C665.119 678.414 770.427 819.319 770.427 819.319L786.742 889.03C788.225 894.963 791.192 900.154 795.641 903.862C803.428 917.582 812.698 949.1 807.878 973.573Z" fill="white"/>
<path d="M526.81 855.659C533.856 844.905 538.305 832.298 541.272 820.062C546.834 794.476 548.688 768.52 549.059 742.564V732.923C547.946 723.282 544.609 713.27 540.901 704.371C536.081 692.505 553.508 685.089 559.07 696.955C559.812 698.438 559.812 701.034 559.812 702.517C560.924 752.946 563.149 817.837 531.26 859.737C529.035 861.962 524.586 858.625 526.81 855.659Z" fill="black"/>
<path d="M774.506 818.578C780.068 821.916 781.922 826.365 782.664 830.815C784.889 839.714 784.147 849.355 786.372 858.625C788.226 867.524 793.788 876.053 795.271 885.323C797.125 894.964 802.687 915.358 804.912 925.37C805.653 927.594 804.17 930.19 801.575 930.561C800.091 930.932 798.979 930.561 797.867 929.819C793.046 925.74 790.821 921.661 787.855 916.47C783.035 907.571 779.697 899.413 776.731 889.402C774.135 880.502 775.248 870.861 773.023 861.591C771.169 852.692 765.978 844.164 764.124 834.894C763.011 830.444 762.64 825.624 765.978 820.061C768.202 817.837 771.91 817.095 774.506 818.578Z" fill="black"/>
<path d="M801.205 916.469C730.382 912.761 672.537 890.513 616.175 790.025C663.638 831.926 719.629 847.871 778.586 855.287L786.373 889.401C787.856 895.333 796.756 912.761 801.205 916.469Z" fill="black"/>
<path d="M798.24 902.75C810.847 926.481 818.263 956.145 810.476 982.472C804.543 1001.01 787.486 1014.73 768.946 1019.92C725.933 1031.42 676.246 1013.25 638.053 992.855C590.961 966.528 556.105 922.402 533.857 874.198C532.374 870.49 537.565 867.523 539.79 871.231C547.577 886.805 556.476 902.008 566.488 915.728C576.5 929.818 587.995 942.796 600.973 954.291C638.794 988.405 689.965 1009.54 741.136 1009.54C793.79 1008.06 813.813 980.247 801.577 929.077C799.723 920.919 796.756 912.39 792.678 905.345C790.453 902.379 796.015 899.042 798.24 902.75Z" fill="black"/>
<path d="M941.739 457.418C948.414 488.565 951.751 513.78 933.582 596.84C915.783 679.529 959.167 696.586 856.455 828.962C814.554 883.099 712.954 867.896 630.636 811.905C602.825 792.994 590.96 744.419 570.195 709.934C553.88 682.866 546.463 711.047 524.957 687.686C495.663 655.797 460.437 591.648 477.865 478.183C506.046 294.264 651.771 272.758 759.675 293.152C868.32 313.917 923.941 375.47 941.739 457.418Z" fill="white"/>
<path d="M543.498 720.687C534.969 706.225 523.845 693.618 513.463 680.269C503.451 666.55 495.293 651.347 488.619 635.773C444.493 527.499 461.55 375.099 569.825 311.32C614.692 285.364 668.829 279.061 719.258 283.139C827.162 290.926 926.166 340.614 949.527 454.821C962.134 505.25 945.077 557.163 935.436 606.48C930.987 630.953 934.695 656.167 934.324 681.382C933.953 706.967 926.908 732.552 917.267 756.284C911.334 772.599 900.952 787.06 890.198 800.409C872.4 821.916 854.601 843.793 831.982 860.479C826.791 864.188 817.521 866.042 811.217 866.783C793.79 869.379 776.733 870.12 759.305 869.008C691.077 866.041 618.029 833.04 590.59 767.037C589.477 764.442 593.185 762.588 594.669 764.812C630.266 821.174 695.527 848.985 760.417 852.693C780.441 853.805 800.835 853.434 820.487 849.355C830.128 844.535 838.657 836.006 846.815 828.22C866.838 808.196 887.232 786.69 901.693 762.217C919.121 729.215 928.762 693.247 925.796 655.796C925.054 639.11 924.683 621.682 928.02 604.996C930.987 588.31 934.695 572.366 936.92 555.309C939.144 538.993 940.257 522.307 940.257 505.992C938.403 458.158 922.829 408.842 892.423 371.761C825.308 288.331 666.604 266.453 577.241 323.557C520.879 358.412 494.552 423.674 486.023 487.081C473.045 563.096 476.753 637.998 537.194 693.247L554.993 711.788C562.038 719.945 549.431 729.586 543.498 720.687Z" fill="black"/>
<path d="M587.251 602.771C587.251 602.771 575.756 547.15 521.619 553.825C474.898 559.757 458.582 671.74 564.632 702.887" fill="white"/>
<path d="M559.813 654.314C551.284 649.493 545.352 641.336 544.981 631.324C545.352 623.908 546.464 615.38 544.61 607.963C543.498 600.918 536.081 599.064 530.519 599.435C524.587 600.547 520.879 607.963 519.766 613.896C519.766 614.267 519.395 615.38 519.395 615.75C519.025 617.604 516.058 617.604 515.317 615.75C510.496 601.289 521.249 585.344 536.823 587.198C558.7 588.682 561.667 611.671 557.588 629.099C555.363 636.515 558.33 643.19 562.409 649.493L563.15 650.606C565.004 652.831 562.038 655.797 559.813 654.314Z" fill="black"/>
<path d="M819.415 614.11C823.857 635.134 832.148 654.678 842.512 673.037C851.691 695.541 828.002 716.862 806.978 715.973C804.609 715.973 804.313 712.716 806.386 712.124C819.711 707.978 831.852 699.095 833.925 685.474C834.813 681.328 833.629 677.775 831.556 674.221C821.784 655.862 815.862 634.838 817.342 614.11C817.342 612.63 819.415 612.63 819.415 614.11Z" fill="black"/>
<path d="M585.4 603.14C576.871 581.263 558.331 560.498 533.487 560.869C531.262 560.498 527.554 561.24 525.329 561.24C519.026 561.61 513.835 563.835 509.014 568.285C485.283 592.016 489.362 633.917 508.643 660.244C515.318 669.514 523.846 677.672 533.487 684.346C543.128 691.021 553.881 696.212 565.376 700.661C567.972 701.403 566.859 705.482 564.264 705.111C539.42 699.92 515.689 687.683 499.373 667.289C474.159 636.883 468.967 586.083 499.002 556.419C505.677 550.486 514.947 546.037 524.217 546.037C527.183 546.037 531.633 545.295 534.6 546.037C550.173 546.778 565.005 554.565 574.646 566.802C583.175 577.184 587.995 589.791 589.478 602.399C589.478 604.623 586.141 605.365 585.4 603.14Z" fill="black"/>
<path d="M770.007 546.195C777.721 547.247 783.682 539.182 780.877 531.468C779.474 527.26 777.02 523.403 773.163 520.949C761.241 513.585 716.709 512.884 693.215 529.715C672.176 545.143 734.942 541.286 770.007 546.195Z" fill="black"/>
<path d="M867.136 550.052C860.824 550.052 856.967 541.987 860.123 535.324C861.876 531.818 864.33 528.662 867.837 526.909C878.707 521.649 907.811 524.805 920.785 542.688C932.356 558.467 896.239 549.701 867.136 550.052Z" fill="black"/>
<path d="M757.033 591.428C739.15 583.714 718.812 585.818 700.228 590.026C698.124 590.727 696.722 587.922 698.475 586.519C714.605 573.195 745.111 571.441 758.085 589.675C759.137 590.376 758.435 591.779 757.033 591.428Z" fill="black"/>
<path d="M894.838 598.792C886.422 592.831 874.15 593.883 864.332 594.935C860.825 595.286 857.319 595.987 853.461 597.039C852.41 597.39 851.358 595.636 852.059 594.935L852.76 594.234C861.526 585.117 875.202 583.013 887.124 587.571C891.331 589.325 895.539 591.779 897.643 596.688C898.695 598.442 896.24 600.195 894.838 598.792Z" fill="black"/>
<path d="M933.251 301.242C847.815 277.088 838.559 321.134 753.123 274.247C667.687 227.004 512.833 258.617 483.999 368.377C483.999 368.377 436.297 397.504 433.093 498.029C430.957 565.519 466.199 627.325 489.338 660.36C505.002 685.935 521.377 704.761 530.988 721.811C546.296 749.162 553.771 779 553.771 779C557.331 744.9 565.519 713.641 560.535 699.788L548.788 695.881C459.792 661.781 475.811 562.677 519.241 556.994C564.807 551.31 579.046 591.804 581.538 601.75C587.59 594.291 585.454 571.913 584.03 545.272C655.227 580.438 726.424 500.515 750.275 438.709C779.822 362.339 844.967 422.014 844.967 422.014C844.967 422.014 909.4 542.43 977.749 488.793C1038.27 440.485 1026.16 327.173 933.251 301.242Z" fill="black"/>
<path d="M550.685 616.979C550.685 616.979 515.628 611.721 518.257 660.801C519.572 685.779 519.572 699.364 519.134 706.375C518.696 711.195 521.763 715.578 526.145 717.33C531.404 719.521 537.101 717.33 539.73 712.072C543.674 705.06 548.056 695.42 548.056 687.532C548.056 674.385 562.079 662.554 562.079 662.554C562.079 662.554 549.371 651.598 550.685 616.979Z" fill="white"/>
<path d="M549.372 618.294C549.372 618.732 549.81 619.171 550.248 619.171C550.248 619.171 550.248 619.171 549.81 619.171H548.934C527.899 620.923 521.326 639.328 522.203 658.172C522.641 670.442 523.517 682.712 523.079 694.543C523.955 701.117 520.011 709.881 526.585 713.387C530.529 715.578 535.787 713.825 537.54 709.443C541.484 701.555 545.428 693.667 545.428 684.903C547.181 674.824 553.754 666.936 560.765 660.801V664.307C551.563 654.666 549.372 641.519 548.057 629.249C548.495 626.182 548.495 621.362 549.372 618.294ZM552.439 615.227C553.754 627.497 553.754 640.205 559.013 651.16C560.327 654.228 562.518 657.733 565.148 659.925C566.9 661.239 566.9 663.868 565.148 665.183C559.013 670.88 553.754 677.891 552.878 685.779C552.878 695.42 548.934 704.622 544.552 712.949C541.046 720.398 530.967 724.342 523.517 719.96C518.697 717.331 515.191 712.072 515.191 706.375C515.191 701.993 515.629 698.487 515.629 694.105C515.629 681.835 514.753 670.003 514.315 657.733C514.315 649.846 514.753 640.643 518.259 632.755C522.641 620.485 536.225 612.159 549.372 614.35C550.687 614.35 552.001 614.788 552.439 615.227Z" fill="black"/>
<path d="M595.617 1148.96C602.311 1084.57 574.99 1016.39 551.235 955.719C541.679 931.724 532.281 909.033 526.736 888.962C516.879 855.29 516.804 822.188 527 790.038C539.336 750.121 532.79 718.252 532.63 716.947L524.037 718.881C524.09 719.316 530.53 750.315 518.745 787.516C508.274 821.024 508.127 855.919 518.197 891.331C524.23 911.784 533.245 934.963 542.802 958.958C566.396 1018.32 593.177 1085.68 586.652 1147.85C582.918 1182.3 604.845 1235.24 633.296 1287.39C636.829 1287.4 639.927 1287.46 643.46 1287.47C614.574 1235.38 592.159 1182.05 595.617 1148.96Z" fill="black"/>
<path d="M519.572 686.217C520.01 695.857 519.572 702.43 519.572 706.374C519.134 711.195 522.201 715.577 526.584 717.33C531.842 719.521 537.539 717.33 540.168 712.071C544.112 705.06 548.494 695.419 548.494 687.531C548.494 687.093 548.494 686.217 548.494 685.778C539.73 689.284 529.213 691.913 519.572 686.217Z" fill="white"/>
<path d="M520.888 687.969C521.326 694.104 521.764 699.801 521.764 705.936C521.326 708.565 522.202 711.194 523.955 713.385C529.652 719.082 537.54 715.577 539.731 708.565C543.237 701.554 546.304 694.104 546.304 686.216L549.372 688.407C539.731 690.16 529.652 692.789 520.45 688.845C520.45 688.845 520.888 688.407 520.888 687.969ZM518.697 684.025C519.573 684.025 521.326 684.463 522.202 685.34C530.09 691.036 540.169 688.407 548.057 684.025C549.372 683.149 551.563 684.463 551.125 686.216C550.686 696.295 546.743 705.936 541.484 714.7C536.664 721.273 526.585 721.712 520.888 716.015C518.259 713.385 516.944 709.003 517.382 705.498C517.382 698.048 518.259 691.036 518.697 684.025Z" fill="black"/>
<path d="M908.698 896.754C916.09 831.384 909.133 784.85 906.524 771C905.219 772.108 904.35 773.77 903.045 774.878C901.741 776.54 900.436 777.648 899.132 779.31C901.741 797.037 906.524 839.14 900.002 895.092C896.958 921.129 896.088 962.123 895.654 1009.77C894.784 1055.75 883.479 1170.42 870 1279C873.044 1277.89 876.087 1276.78 879.131 1276.23C892.61 1168.76 903.48 1056.3 904.35 1010.32C905.219 962.677 905.654 922.237 908.698 896.754Z" fill="black"/>
<path d="M823.59 773.425C791.698 794.619 731.4 777.595 715.454 751.884C713.461 748.757 718.444 745.978 722.43 747.368C730.902 750.494 738.377 753.621 746.35 756.053C769.273 763.35 793.193 769.256 818.607 767.519C823.59 766.824 827.079 770.993 823.59 773.425Z" fill="black"/>
<path d="M1224.38 358.137C1482.25 854.771 1028.95 1415.13 488.562 1278.33C245.98 1218.01 50.9803 1007.71 10.6208 760.882C-35.2615 515.327 75.6208 251.503 282.941 112.582C567.157 -82.8433 960.98 -17.8433 1164.48 261.699C1165.75 262.974 1165.33 265.098 1163.63 266.372C1162.35 267.647 1160.23 267.222 1158.95 265.523C1130.91 229.412 1099.05 196.699 1064.22 167.385C1006.86 118.529 939.738 80.2939 868.791 54.3789C507.68 -76.4708 111.307 141.046 32.2875 518.725C-56.9282 941.863 302.908 1331.44 731.993 1273.24C1062.94 1231.6 1308.92 926.144 1281.73 593.921C1275.78 513.627 1254.54 434.183 1219.28 361.111C1218.43 359.836 1219.28 358.137 1220.56 357.287C1221.83 356.438 1223.53 356.863 1224.38 358.137Z" fill="black"/>
</g>
</svg>
