<svg width="1200" height="1200" viewBox="0 0 1200 1200" fill="none" xmlns="http://www.w3.org/2000/svg">
<mask id="mask0_410_1917" style="mask-type:alpha" maskUnits="userSpaceOnUse" x="0" y="0" width="1197" height="1197">
<circle cx="598.033" cy="598.033" r="598.033" fill="#D9D9D9"/>
</mask>
<g mask="url(#mask0_410_1917)">
<path d="M925.883 1091.76C923.138 1093.73 920.001 1095.69 917.255 1097.65C914.118 1099.61 911.373 1101.57 908.236 1103.14C905.491 1104.71 903.138 1106.27 900.393 1107.84C900.001 1108.24 899.608 1108.24 899.216 1108.63C890.197 1114.12 880.785 1119.22 871.373 1123.92C868.628 1125.49 865.491 1127.06 862.746 1128.24C862.746 1128.24 862.353 1128.63 861.961 1128.63C858.824 1130.2 855.687 1131.76 852.55 1133.33C846.275 1136.47 839.608 1139.22 833.334 1141.96C830.197 1143.53 826.667 1144.71 823.53 1145.88C820.393 1147.06 816.863 1148.63 813.726 1149.8C810.589 1150.98 807.059 1152.55 803.922 1153.73C803.922 1153.73 803.922 1153.73 803.53 1153.73C800.393 1154.9 796.863 1156.08 793.726 1157.25C786.667 1159.61 779.216 1161.96 772.157 1164.31C769.804 1165.1 767.059 1165.88 764.706 1166.67C757.255 1169.02 749.804 1170.98 742.353 1172.55C739.608 1173.33 736.863 1173.73 733.726 1174.51C726.667 1176.08 719.216 1177.65 712.157 1179.22C710.589 1179.61 709.412 1179.61 707.844 1180C705.491 1180.39 702.746 1180.78 700.393 1181.18C696.863 1181.57 693.726 1182.35 690.197 1182.74C688.628 1183.14 687.059 1183.14 685.491 1183.53C683.53 1183.92 681.177 1184.31 678.824 1184.31C672.55 1185.1 665.883 1185.88 659.608 1186.67C657.648 1187.06 655.295 1187.06 653.334 1187.45H652.942C650.197 1187.84 647.452 1187.84 644.706 1188.24C641.961 1188.63 639.216 1188.63 636.471 1188.63C634.903 1188.63 632.942 1189.02 631.373 1189.02C628.236 1189.02 625.491 1189.41 622.746 1189.41C618.824 1189.41 615.295 1189.8 611.373 1189.8C607.452 1189.8 603.922 1189.8 600.001 1189.8C597.255 1189.8 594.51 1189.8 591.765 1189.8C426.275 1187.45 277.648 1117.25 171.373 1005.88C171.373 1005.88 171.373 1005.49 170.981 1005.49C159.216 994.902 169.412 938.431 216.863 902.745C276.471 857.647 419.216 829.412 419.216 829.412C419.216 829.412 474.51 820.392 679.608 863.137C799.608 888.235 890.981 924.706 941.961 1023.53C952.55 1043.92 963.138 1075.29 925.883 1091.76Z" fill="white"/>
<path d="M680.785 858.823C756.079 874.118 836.471 890.588 898.432 940.392C919.216 957.255 932.942 981.961 944.314 1005.88C949.804 1017.65 955.295 1029.8 959.608 1042.75C961.961 1051.37 965.491 1061.18 963.53 1071.37C963.138 1074.12 960.785 1077.65 958.824 1079.61C949.804 1088.63 940.001 1094.12 930.197 1101.18C872.55 1141.18 806.275 1169.41 737.648 1184.31C584.706 1217.65 419.216 1191.76 284.706 1111.37C240.001 1084.31 198.824 1051.37 163.53 1012.55C159.608 1007.84 159.608 1000 159.608 994.902C160.001 983.137 163.138 971.765 167.059 961.176C176.471 936.863 188.628 912.549 209.412 895.686C224.314 885.49 240.393 876.863 256.863 869.804C308.628 847.843 363.138 832.549 419.216 826.274C423.922 825.882 424.706 832.549 420.001 833.333C366.275 844.314 312.942 860.784 263.138 883.137C245.099 892.157 225.883 900 211.373 914.118C197.648 929.02 187.844 947.451 180.001 966.274C174.903 977.647 171.373 995.686 172.942 1004.71C197.648 1034.12 226.667 1060 258.04 1082.35C429.804 1202.35 690.589 1210.2 873.334 1110.2C889.804 1101.18 905.883 1090.98 921.177 1080.39C928.628 1075.29 936.471 1070.98 942.353 1065.1C942.746 1064.71 942.353 1065.1 942.353 1065.49C942.353 1065.88 941.961 1066.27 941.961 1066.27C942.353 1061.57 940.785 1055.29 938.824 1049.02C931.765 1026.27 920.393 1002.35 908.236 981.569C889.02 950.588 856.471 930.98 823.53 915.294C800.785 904.706 776.863 896.471 752.55 888.627C728.236 880.784 703.53 874.118 678.824 868.235C672.55 866.667 674.51 857.647 680.785 858.823Z" fill="black"/>
<path d="M1056.08 1334.9H64.3164C64.3164 1334.9 122.748 1211.77 148.63 1071.37C166.669 974.119 180.003 917.256 230.591 885.884C266.277 863.923 342.748 841.178 375.689 829.413C398.042 821.57 402.748 828.237 418.826 823.923C418.826 825.884 419.218 827.452 419.218 829.413C419.218 829.413 461.571 955.295 571.767 1000C661.571 1036.47 714.905 1012.16 723.14 971.766C728.238 945.884 712.16 903.531 703.924 889.805C699.218 885.884 696.081 880.001 694.512 874.119L691.375 861.178C698.826 859.609 705.885 857.648 712.944 855.295C715.297 854.511 717.258 853.727 719.611 852.942C764.709 864.707 861.179 902.746 903.924 941.962C920.787 957.648 960.787 1036.08 986.669 1149.81C1016.47 1278.82 1056.08 1334.9 1056.08 1334.9Z" fill="black"/>
<path d="M1065.1 1339.61C769.805 1341.57 355.295 1346.27 64.7071 1345.1C57.6482 1345.1 52.5502 1337.25 55.6875 1330.98C90.5894 1254.12 118.04 1172.16 135.687 1089.41C137.648 1078.82 141.962 1058.04 143.923 1047.45C152.942 1004.31 160.001 961.569 183.138 921.961C190.982 909.019 201.178 896.863 213.335 887.059C225.099 877.647 238.825 870.588 252.55 864.314C296.472 845.49 340.786 830.588 385.884 816.863C396.472 814.51 407.06 817.255 417.256 814.902C423.138 813.333 429.413 817.647 429.805 823.921L430.197 829.412L419.609 819.608C423.923 819.608 427.844 822.353 429.021 826.274C432.158 835.294 436.472 844.706 440.786 853.725C454.119 880.784 470.589 906.274 490.589 928.627C516.864 958.431 549.805 981.961 587.452 995.294C625.491 1009.41 693.335 1021.57 712.158 976.078C715.295 967.843 714.903 959.216 713.727 950.196C710.982 931.765 704.707 912.157 695.687 895.686L697.648 898.039C691.374 889.804 689.021 880 689.805 870.588V862.353V861.176C689.805 860.392 690.589 859.608 691.374 859.608C696.08 858.039 700.393 856.078 705.099 854.51C709.413 852.549 713.727 850.588 718.04 848.235C719.217 847.451 720.393 847.843 721.57 848.235C747.452 854.902 772.158 863.921 796.864 874.117C833.727 889.412 870.197 906.667 901.962 931.372C913.335 939.608 921.57 951.765 928.236 963.921C941.57 987.451 952.158 1011.76 961.57 1036.47C978.04 1079.61 990.197 1124.31 1000.79 1169.41C1014.12 1219.22 1030.2 1268.63 1054.9 1314.12C1057.65 1318.82 1060.39 1323.53 1063.14 1328.24L1063.92 1329.02V1329.41C1066.28 1331.37 1066.67 1336.86 1065.1 1339.61ZM1047.06 1330.2C1045.1 1332.16 1045.49 1337.65 1047.06 1339.61V1339.22L1046.28 1338.04C1018.82 1292.94 1001.57 1242.35 987.452 1191.76C980.393 1167.06 975.295 1140.39 968.236 1115.29C954.511 1065.88 937.648 1016.08 912.942 970.98C908.629 963.529 903.923 955.294 898.04 949.412C886.668 938.823 873.335 930.196 860.001 921.961C838.04 909.019 814.511 897.647 790.589 887.843C766.668 878.039 742.354 869.019 717.648 862.353L723.531 861.961C712.942 862.745 702.746 863.137 692.55 862.745L694.119 860.392C696.472 864.314 699.217 870.98 701.57 874.51C704.315 878.039 707.452 880.784 710.982 882.353C711.766 883.137 712.55 883.921 712.942 884.706C727.06 911.765 741.178 952.157 730.982 982.353C707.452 1041.57 628.629 1032.16 580.393 1013.73C540.001 1000 503.531 973.725 475.295 941.569C447.06 909.412 424.707 872.549 409.805 832.549L419.217 839.216C413.727 839.216 409.413 835.294 409.021 829.804L408.629 824.706L421.178 833.725C417.256 834.902 412.55 835.294 408.236 835.686C397.256 835.294 389.805 834.902 379.609 838.823C366.276 843.529 352.55 848.235 338.825 852.549C311.766 861.568 285.099 870.98 259.609 882.353C201.57 905.49 184.707 951.765 171.374 1009.41C165.099 1036.08 160.001 1066.27 154.511 1093.33C136.472 1178.04 109.021 1260 73.3345 1339.22L64.3149 1324.71C348.629 1324.71 758.825 1327.45 1047.06 1330.2Z" fill="black"/>
<path d="M538.04 1041.18C402.746 980.392 350.197 871.765 360.393 842.353C360.393 842.353 360.393 841.961 360.785 841.569C367.844 827.059 379.217 815.294 393.334 807.059C401.178 802.353 409.805 798.039 416.864 795.686C523.923 769.02 665.883 814.118 713.727 855.294C730.981 876.079 748.629 896.863 755.295 951.765C764.707 1030.98 678.04 1104.31 538.04 1041.18Z" fill="white"/>
<path d="M536.079 1045.49C468.236 1014.9 404.707 967.059 368.629 900.784C361.57 887.059 355.295 872.941 353.334 856.863C352.942 851.373 352.55 844.706 355.295 839.216C363.531 822.745 378.432 809.804 394.903 801.961C407.452 795.294 421.178 790.588 434.903 786.274C454.511 782.745 474.119 781.569 494.119 781.961C559.609 783.922 624.707 801.176 682.746 831.373C687.06 833.725 691.374 836.078 695.687 838.823C697.256 839.608 698.432 840.784 700.393 840.392C702.354 840 703.923 840.784 705.491 841.569C710.197 844.314 714.119 847.843 718.432 851.765C729.021 864.706 739.609 878.431 746.668 894.118C753.727 909.804 757.648 926.667 760.001 943.137C766.276 976.863 754.903 1014.51 728.629 1037.65C675.295 1085.49 595.295 1072.55 536.079 1045.49ZM539.609 1037.25C583.53 1056.47 633.727 1068.63 680.393 1053.73C718.04 1042.35 749.021 1008.24 750.197 968.235C750.589 944.706 745.099 920 735.687 898.431C730.589 885.098 716.472 868.235 709.413 859.608C705.099 856.078 700.393 853.333 696.472 849.804C696.08 849.02 695.687 848.235 695.295 847.451C694.511 845.49 692.942 845.098 691.766 843.922C687.844 841.569 683.53 839.216 679.217 836.863C645.099 819.216 607.452 809.02 569.805 801.569C525.883 793.333 480.785 790.98 436.472 797.255C430.197 798.039 423.531 797.255 417.256 798.823C412.55 800.784 403.923 804.706 398.432 808.627C384.315 816.863 373.727 829.02 366.276 843.529L365.883 843.922C365.883 844.314 365.491 845.098 365.491 845.49C363.53 861.961 371.374 878.823 378.825 894.118C385.491 906.667 393.334 918.823 402.354 930.588C438.432 977.255 486.668 1013.33 539.609 1037.25Z" fill="black"/>
<path d="M717.645 963.138C709.409 1003.53 656.076 1027.84 566.272 991.373C472.939 953.726 432.547 863.922 422.351 837.255C477.645 733.726 439.213 661.961 439.213 661.961C566.664 650.981 678.037 800 678.037 800L695.292 873.726C696.86 880 699.998 885.491 704.704 889.412C712.939 903.922 722.743 937.255 717.645 963.138Z" fill="white"/>
<path d="M420.392 838.431C427.843 827.059 432.549 813.726 435.686 800.784C441.568 773.726 443.529 746.275 443.921 718.824V708.627C442.745 698.431 439.215 687.843 435.294 678.431C430.196 665.882 448.627 658.039 454.509 670.588C455.294 672.157 455.294 674.902 455.294 676.471C456.47 729.804 458.823 798.431 425.098 842.745C422.745 845.098 418.039 841.569 420.392 838.431Z" fill="black"/>
<path d="M682.351 799.216C688.234 802.746 690.195 807.452 690.979 812.158C693.332 821.569 692.547 831.766 694.9 841.569C696.861 850.981 702.744 860.001 704.312 869.805C706.273 880.001 712.155 901.569 714.508 912.158C715.293 914.511 713.724 917.256 710.979 917.648C709.41 918.04 708.234 917.648 707.057 916.864C701.959 912.55 699.606 908.236 696.469 902.746C691.371 893.334 687.842 884.707 684.704 874.118C681.959 864.707 683.136 854.511 680.783 844.707C678.822 835.295 673.332 826.275 671.371 816.471C670.194 811.765 669.802 806.667 673.332 800.785C675.685 798.432 679.606 797.648 682.351 799.216Z" fill="black"/>
<path d="M710.588 902.745C635.686 898.823 574.51 875.294 514.902 769.02C565.098 813.333 624.314 830.196 686.667 838.039L694.902 874.118C696.47 880.392 705.882 898.823 710.588 902.745Z" fill="black"/>
<path d="M707.452 888.236C720.785 913.334 728.629 944.707 720.393 972.55C714.119 992.158 696.08 1006.67 676.472 1012.16C630.982 1024.31 578.433 1005.1 538.04 983.53C488.236 955.687 451.374 909.02 427.844 858.04C426.276 854.118 431.766 850.981 434.119 854.903C442.354 871.373 451.766 887.452 462.354 901.962C472.942 916.864 485.099 930.589 498.825 942.746C538.825 978.824 592.942 1001.18 647.06 1001.18C702.746 999.609 723.923 970.197 710.982 916.079C709.021 907.452 705.884 898.432 701.57 890.981C699.217 887.844 705.099 884.315 707.452 888.236Z" fill="black"/>
<path d="M859.216 417.255C866.275 450.196 869.804 476.863 850.588 564.706C831.765 652.157 868.236 740.392 775.687 820.785C713.334 874.902 604.314 885.098 517.255 825.883C487.843 805.883 480 712.549 456.863 676.863C447.059 661.961 441.177 685.883 418.824 661.177C387.843 627.451 350.589 559.608 369.02 439.608C398.824 245.098 552.941 222.353 667.059 243.922C781.569 265.49 840.392 330.588 859.216 417.255Z" fill="white"/>
<path d="M438.039 695.687C429.019 680.785 417.647 667.844 407.058 654.118C391.372 632.942 379.607 608.628 371.764 583.53C338.039 476.079 356.078 336.079 455.686 269.02C547.843 206.667 723.921 225.491 804.705 300.785C845.097 337.255 867.45 390.197 872.156 443.53C874.509 479.216 865.882 513.726 858.431 548.236C849.803 581.961 847.843 615.687 847.843 650.589C847.45 685.491 845.882 721.961 832.548 754.903C812.156 805.099 769.411 845.883 718.039 863.138C650.588 886.667 570.98 873.334 515.686 828.236C513.333 826.275 515.686 823.138 518.431 824.314C590.98 865.491 686.274 872.55 756.862 825.099C798.823 796.863 827.843 752.157 834.509 701.961C839.999 667.844 838.431 633.334 841.568 598.824C842.745 583.53 847.058 562.354 850.195 547.059C854.901 521.569 858.039 496.079 857.646 470.589C857.254 445.491 851.764 420.785 844.313 396.863C818.431 311.765 744.313 261.569 658.823 247.844C530.98 225.491 419.215 272.942 385.882 405.883C371.372 470.981 359.999 542.746 387.45 605.883C397.254 629.804 413.333 650.197 431.764 667.844L449.803 687.059C457.646 694.903 444.313 705.099 438.039 695.687Z" fill="black"/>
<path d="M484.311 570.981C484.311 570.981 472.155 512.157 414.9 519.216C365.488 525.49 348.233 643.922 460.39 676.863" fill="white"/>
<path d="M455.293 625.49C446.273 620.392 439.999 611.765 439.606 601.176C439.999 593.333 441.175 584.314 439.214 576.471C438.038 569.02 430.195 567.059 424.312 567.451C418.038 568.627 414.116 576.471 412.94 582.745C412.94 583.137 412.548 584.314 412.548 584.706C412.155 586.667 409.018 586.667 408.234 584.706C403.136 569.412 414.508 552.549 430.979 554.51C454.116 556.078 457.253 580.392 452.94 598.823C450.587 606.667 453.724 613.725 458.038 620.392L458.822 621.569C460.783 623.921 457.646 627.059 455.293 625.49Z" fill="black"/>
<path d="M769.018 529.412C774.9 557.255 785.881 583.137 799.606 607.451C811.763 637.255 780.39 665.49 752.547 664.314C749.41 664.314 749.018 660 751.763 659.216C769.41 653.726 785.488 641.961 788.234 623.922C789.41 618.432 787.841 613.726 785.096 609.02C772.155 584.706 764.312 556.863 766.273 529.412C766.273 527.451 769.018 527.451 769.018 529.412Z" fill="black"/>
<path d="M482.352 571.374C473.333 548.236 453.725 526.276 427.451 526.668C425.098 526.276 421.176 527.06 418.823 527.06C412.156 527.452 406.666 529.805 401.568 534.511C376.47 559.609 380.784 603.923 401.176 631.766C408.235 641.57 417.254 650.197 427.451 657.256C437.647 664.315 449.019 669.805 461.176 674.511C463.921 675.295 462.745 679.609 460 679.217C433.725 673.726 408.627 660.785 391.372 639.217C364.705 607.06 359.215 553.334 390.98 521.962C398.039 515.687 407.843 510.981 417.647 510.981C420.784 510.981 425.49 510.197 428.627 510.981C445.098 511.766 460.784 520.001 470.98 532.942C480 543.923 485.098 557.256 486.666 570.589C486.666 572.942 483.137 573.726 482.352 571.374Z" fill="black"/>
<path d="M739.216 703.53C714.118 727.451 666.667 708.236 654.118 679.216C652.549 675.687 656.471 672.549 659.608 674.118C666.275 677.647 672.157 681.177 678.432 683.922C696.471 692.157 715.294 698.824 735.294 696.863C739.216 696.079 741.961 700.785 739.216 703.53Z" fill="black"/>
<path d="M622.746 569.411C613.334 569.019 606.275 561.176 607.06 551.764L607.452 540.784C607.844 531.372 615.687 524.313 625.099 525.098C634.51 525.49 641.569 533.333 640.785 542.745L640.393 553.725C640.001 562.745 632.158 569.804 622.746 569.411Z" fill="black"/>
<path d="M787.843 575.294C779.215 574.902 772.549 567.451 772.941 558.823L773.333 548.627C773.725 540 781.176 533.333 789.803 533.725C798.431 534.118 805.098 541.569 804.705 550.196L804.313 560.392C803.921 569.02 796.47 575.686 787.843 575.294Z" fill="black"/>
<path d="M658.04 548.235C645.099 539.607 630.981 533.725 615.295 536.862C610.197 537.647 605.099 539.215 601.962 542.745C600.785 544.313 598.04 543.921 598.04 541.568C598.432 533.725 605.099 528.627 611.373 525.49C623.53 519.215 640.393 520.392 651.373 528.627C655.295 530.98 668.628 545.49 661.569 548.627C660.001 549.411 659.217 549.019 658.04 548.235Z" fill="black"/>
<path d="M770.197 550.196C770.197 533.726 790.589 527.843 803.138 533.726C810.197 536.863 815.295 543.137 817.256 550.588C818.04 552.941 814.511 554.902 812.942 552.941C806.275 545.098 794.903 541.177 785.883 545.882C783.138 547.451 782.746 548.628 781.961 550.196C781.961 558.039 770.589 557.647 770.197 550.196Z" fill="black"/>
<path d="M676.864 483.529C685.099 486.274 693.334 478.823 691.766 469.804C690.981 465.098 689.02 460.392 685.099 456.863C673.334 446.274 624.707 436.863 595.295 450.588C569.413 463.137 639.217 470.98 676.864 483.529Z" fill="black"/>
<path d="M794.12 489.804C787.453 492.157 780.394 485.098 781.571 476.863C781.963 472.549 783.532 468.236 786.669 465.098C796.081 455.687 828.237 448.236 848.63 462.745C866.277 474.902 824.708 478.432 794.12 489.804Z" fill="black"/>
<path d="M889.021 323.922C916.864 223.138 803.923 160 773.726 205.491C751.766 238.432 667.06 212.942 538.432 210.589C409.805 207.843 375.295 276.079 373.726 349.412C373.726 349.412 317.256 379.216 320.785 484.314C324.315 593.334 436.472 681.177 450.197 736.471C450.197 736.471 451.766 743.53 436.864 667.843C351.374 626.667 369.413 525.098 415.295 519.216C450.197 514.902 468.628 535.294 477.256 551.765C480.785 556.471 514.119 597.255 514.903 463.922C515.295 372.942 603.923 343.138 704.707 380C757.256 399.216 812.55 413.334 850.589 385.883C856.864 403.922 863.53 423.922 858.432 448.236C873.726 434.118 886.668 413.334 890.197 387.843C892.55 372.549 888.628 359.216 880.001 347.451C883.53 340.785 886.668 332.549 889.021 323.922Z" fill="black"/>
<path d="M685.099 617.647C685.099 617.647 648.236 640.784 606.668 640.392C565.099 640 560.001 607.451 559.609 589.804C559.609 589.804 565.099 615.294 590.197 624.706C614.903 634.117 685.099 617.647 685.099 617.647Z" fill="black"/>
<path d="M803.527 613.333C803.527 613.333 812.547 624.313 824.704 632.157C832.939 637.647 843.92 631.764 843.92 621.961C843.92 621.961 821.174 623.137 803.527 613.333Z" fill="black"/>
<path d="M698.822 512.941C677.646 510.98 624.312 506.667 603.92 504.706L588.234 503.529C575.293 502.745 565.097 513.725 562.744 526.274C561.959 530.196 561.959 536.863 561.959 540.784V556.863C561.959 566.667 561.567 576.863 565.097 586.275C571.371 608.235 591.371 625.882 614.9 623.137C617.253 622.745 631.763 621.176 634.508 620.784L666.273 617.255C676.469 616.471 685.881 613.726 694.9 608.235C707.449 600.784 719.606 589.412 718.822 573.333L719.606 557.647C720.391 538.039 725.881 514.902 698.822 512.941ZM699.999 500C718.43 501.569 730.979 520.784 729.802 538.431C729.802 540.784 729.018 555.686 728.626 558.431C728.626 561.569 727.842 575.686 727.449 578.431C725.489 605.098 695.685 623.922 671.371 627.451C658.822 629.02 632.548 632.549 619.999 634.118C616.861 634.51 612.548 634.902 609.41 635.294C607.842 635.294 604.312 634.902 602.744 634.902C569.41 630.588 548.234 596.471 549.018 564.706C549.018 559.608 549.018 546.274 549.018 540.784C549.018 538.039 549.018 530.98 549.41 528.235C550.587 514.51 558.038 501.176 570.587 493.725C576.077 490.588 582.744 489.02 589.41 489.412L605.489 490.98C625.097 493.333 679.214 498.431 699.999 500Z" fill="black"/>
<path d="M790.98 506.275C799.607 505.098 841.96 500.392 849.803 499.608C851.764 499.608 856.862 498.824 858.431 498.824C875.293 496.471 883.137 514.902 884.705 528.628C885.49 540.785 884.705 552.549 885.097 564.314C885.097 572.549 884.313 580.785 882.352 588.628C877.254 609.804 862.352 632.157 837.646 625.098C831.764 623.922 819.999 622.353 814.509 621.177L808.627 620C797.254 618.04 787.842 610.196 781.568 601.569C769.803 587.843 772.156 569.412 770.98 552.941C769.411 536.471 769.803 510.981 790.98 506.275ZM792.548 517.647C780.392 523.138 783.529 541.569 783.529 552.549L784.313 576.079C784.705 590.981 796.47 605.883 810.588 609.804C814.117 610.589 823.921 612.549 827.842 613.334L839.215 615.687C867.45 624.706 878.431 585.491 878.039 563.922C876.862 545.883 882.352 524.314 869.411 509.804C866.274 506.667 863.137 505.883 859.607 506.667C857.646 507.059 852.548 507.843 850.98 508.236C843.137 509.804 800.784 516.471 792.548 517.647Z" fill="black"/>
<path d="M555.293 542.745C552.156 549.804 549.411 549.02 543.921 549.02L532.548 548.628C518.038 547.843 501.96 546.667 487.45 544.706C479.607 543.53 471.372 542.353 463.529 540.392C460.391 539.608 458.431 536.471 459.215 533.333C459.999 530.588 462.352 528.628 465.097 529.02L487.842 530.196L510.587 530.98C518.038 531.373 537.254 531.765 544.705 532.157C548.627 532.157 552.156 532.549 556.078 531.373C557.646 530.981 559.215 531.765 559.607 533.333C559.999 534.118 559.607 534.51 559.607 535.294L555.293 542.745Z" fill="black"/>
<path d="M722.352 534.51C736.47 526.667 773.725 515.686 780.784 536.863C783.921 542.353 775.685 547.451 772.156 541.961C772.156 542.745 770.195 541.961 769.411 541.961C754.509 540.784 739.215 543.137 724.313 544.314C718.038 545.098 716.862 536.863 722.352 534.51Z" fill="black"/>
<path d="M1130.2 330.588C1368.24 789.02 949.804 1306.27 450.981 1180C227.059 1124.31 47.0589 930.196 9.80403 702.353C-32.5489 475.686 69.804 232.157 261.177 103.922C523.53 -76.4704 887.059 -16.4704 1074.9 241.569C1076.08 242.745 1075.69 244.706 1074.12 245.883C1072.94 247.059 1070.98 246.667 1069.8 245.098C1043.92 211.765 1014.51 181.569 982.353 154.51C929.412 109.412 867.451 74.1179 801.961 50.1963C468.628 -70.588 102.745 130.196 29.804 478.824C-52.5489 869.412 279.608 1229.02 675.686 1175.29C981.177 1136.86 1208.24 854.902 1183.14 548.235C1177.65 474.118 1158.04 400.785 1125.49 333.334C1124.71 332.157 1125.49 330.588 1126.67 329.804C1127.84 329.02 1129.41 329.412 1130.2 330.588Z" fill="black"/>
</g>
</svg>
